<svg xmlns="http://www.w3.org/2000/svg" width="388.773" height="292.952"><defs><clipPath id="b" clipPathUnits="userSpaceOnUse"><path d="M0-.771h367.33V302.77H0Z" clip-rule="evenodd"/></clipPath><clipPath id="a" clipPathUnits="userSpaceOnUse"><path d="M0 0h500v500H0Z" clip-rule="evenodd"/></clipPath></defs><g clip-path="url(#a)" transform="translate(-57.07 -92.34)"><path d="M0 25c.7-6.8 1.3-13.3 1.9-19.7C2.2 2.7 3.6 1.2 6 .4 8.4-.4 10.7 0 12.3 2c15.9 19.5 37.3 31.1 59.6 41.2C89.5 51 107.4 58 125.1 65.5c3.6 1.5 7 3.4 10.6 5 6.7 3.2 11.1 8.4 13.8 15.1 1 2.6 1.9 5.2 2.9 7.8L159 112c.5 1.5 1.2 3 1.8 4.5 1.6 4.5-.4 6.9-5.1 6.1-3.5-.6-7-1.3-10.5-1.9-15.1-2.5-30.2-4.7-45.2-7.4-19-3.3-37.7-7.5-55.5-14.9C20.1 88.2 6.6 69.6 2.1 44.1 1 37.7.7 31.2 0 25Zm237.8 57.4c-7.3-1.2-14.6-2.4-21.9-3.8-11.2-2.1-22.6-3.9-33.6-6.9-9.6-2.6-18.8-6.8-28.1-10.2-3.4-1.3-4.7-.3-4.1 3.3 1.5 10 5.9 18.5 13.6 25.2 8.4 7.2 18.4 11.2 29.1 13.6 7 1.6 14.2 2.7 21.3 4 1.1.1 2.3.2 3.4.4 11.7 2.4 23.5 4.3 35 7.4 20.8 5.7 35 19 41.7 39.7 2.9 9 5.4 18 7.7 27.1 3.7 14.6 8.4 28.7 16.8 41.3 2.9 4.3 6.2 8.4 10 11.9 5.1 4.7 11.4 6.2 18.2 4 4.5-1.5 8.9-3.4 13.1-5.6 4.1-2.1 5.3-5.2 4.3-9.8-.3-1.3-.7-2.7-1.3-3.9-1.6-3.9-4.1-5.4-8.2-5-5.9.6-10.8-1.3-14.4-6-2.1-2.8-4-5.8-5.3-9-3-8-5.8-16-8.3-24.2-4.4-14.5-8.2-29.2-12.9-43.7-4.8-14.7-13.5-26.8-27.2-34.7-8.4-4.9-17.5-8.2-26.9-10.6-6.7-1.7-13.5-3-20.2-4.4-.5 0-1.2 0-1.8-.1Zm-80.6 50.4c-15.1-2.6-30.2-5.6-45.3-8.2-17.8-3.1-35.6-5.8-53-10.8-16.7-4.8-33.1-10.4-45-24.2-1.4-1.6-3-1.4-3.5.7-.7 3.2-1.6 6.6-1.1 9.8 1.5 10.4 6.5 19.5 12.9 27.8 11.1 14.5 26.4 22.1 43.9 25.6 24.6 4.9 49.5 7.1 74.5 8.9 5.8.4 11.7.9 17.5 1.3 5.4.3 10.8.7 16.2 1 4.2.3 5.4-1.2 4.1-5.2-1.3-4.1-2.6-8.1-3.9-12.2-2.2-9.2-8.7-13-17.3-14.5Zm-12.5 39.4c-7.9-.6-15.9-.9-23.8-1.8-13.8-1.5-27.6-3-41.3-5.3-9.3-1.5-18.3-4.4-27.4-6.7-2.9-.7-4-.3-4.4 2.7-.4 2.5-.6 5-.5 7.5.5 7.9 4.3 14.2 9.6 19.7 7.1 7.3 15.9 12.1 25.2 15.8 9 3.6 18.4 5.7 28 7.4h1.5c11.6 1.6 23.2 1.8 34.8.5 12.3-1.5 24.7-3 37-4.6 4.3-.5 8.5-1.2 12.8-2 3.9-.7 5-3 3.1-6.3-3.3-5.9-6.5-11.8-9.8-17.7-4.3-7.4-1.9-6.4-11.6-7.2-9.4-.7-18.8-1.3-28.2-2-1.7.1-3.4.2-5 0zm49.1-61.2c-7.8-2.4-15.4-5.3-23.2-7.9-1.3-.4-3.2-.4-4.2.4-.8.6-.7 2.5-.9 3.9-.1.4.2.9.4 1.4 3.3 11.5 10 20.6 19.4 27.8 10.1 6.8 21.2 11 33.2 12.4 10.6 1.2 21.2 1.8 31.9 2.1 9.4.2 18.9-.3 28.3-.7 4-.2 4.4-.9 2.7-4.3-4.4-9.1-11.7-15.3-20.7-19.5-10-4.6-20.8-6.8-31.6-8.8-7-1.3-14-2.6-21.1-3.9-4.7-.9-9.6-1.5-14.2-2.9Zm-81.6 110.2c-3.5 0-4.9 1.6-3.9 5.1 2.6 9.2 8 16.3 16.6 20.6 5.6 2.8 11.6 4.1 17.8 4.6 12.3.9 24.4-.6 36.2-3.8 14.7-4 29.2-8.8 43.8-13.2 3.6-1.1 4.1-2.8 1.5-5.5-4.5-4.9-9.1-9.7-13.4-14.9-2.1-2.5-4.4-3.1-7.3-2.5-2.5.5-5.1 1-7.6 1.6-22.3 5.3-44.9 7.6-67.7 8-5.3 0-10.6.1-16 0zm129.6-39.8c15.1-1.1 29.6-4.6 44.1-8.9 4.9-1.5 4.7-1.4 4.1-6.4-.9-6.7-3.4-8.8-10.7-8.7-.7 0-1.5.1-2.2.1-6.2.5-12.3 1.2-18.5 1.5-17.1.8-34.2-.2-50.8-4.6-7.3-2-14.3-5.1-21.5-7.6-1-.3-2.5-.4-3.3.2-.5.4-.6 2.1-.3 3 4.1 12.7 12 22.2 24.5 27.4 8.5 3.6 17.5 4.7 26.7 4.7 2.8-.4 5.4-.5 7.9-.7Zm-.2 25.9c12.5-1.2 24.6-4.5 36.5-8.3 4.5-1.5 8.9-3 13.3-4.6 4-1.5 4.7-2.9 3.7-7.1-.4-1.7-.9-3.5-1.4-5.2-.8-2.6-2.5-3.6-5.1-3.2-.8.1-1.6.4-2.4.6-14.6 4.1-29.4 7.6-44.6 8.8-12 .9-23.9.4-35.3-3.9-1.3-.5-2.8-1.3-3.7.3-.6 1.1-1 2.9-.6 4 2.4 7.1 6.9 12.4 13.8 15.6 6 2.7 12.3 3.5 18.8 3.5 2.3-.2 4.7-.3 7-.5zm-28 66.8c13.1-3.6 24.1-11.2 34.6-19.4 1.5-1.1 1-2.2-.1-3.2-3.8-3.6-7.7-7-11.3-10.7-2.2-2.3-4.5-2.5-7.3-1.4-15.9 6.1-32 11.7-48.5 16-4.1 1.1-5 3.3-2.6 6.8 5.8 8.7 13.8 13.6 26.3 13.6 1.8-.3 5.4-.7 8.9-1.7zm13.9-60.7c-1.5-.1-3-.4-3.9 1.3-.9 1.6-.1 2.9.8 4.2 8.5 11.8 19.6 15.8 34.2 12.4 14.4-3.4 27.4-10.3 40.3-17.4.5-.3.9-.7 1.4-1 1.9-1.5 2.6-3.2 1.4-5.5-.7-1.4-1.2-3-1.9-4.5-1.3-3-2.3-3.6-5.5-2.6-4.2 1.3-8.3 2.9-12.4 4.2-15.5 5.1-31.2 9.1-48.2 9.2-1.6-.1-3.9-.2-6.2-.3zm49.5 37.4c10.5-4.7 20.7-10.1 29.5-17.9 5.6-4.9 5.6-5.3 1.7-11.8-2.1-3.5-3.5-3.9-7.2-1.9-3.7 1.9-7.3 3.9-11 5.7-9.1 4.5-18.3 8.8-28.4 10.8-3.6.7-7.2 1.2-10.8 2.1-2.6.6-3.9 3.1-2.5 4.6 5.3 5.8 11.3 10.3 19.8 10.7 3-.8 6.2-1.1 8.9-2.3Zm-17.3 9.5c-2.6-1.7-4.9-1.7-7.3.3-1.3 1.1-2.9 1.9-4.3 2.7l-28.2 16.8c-3.4 2-3.4 3.9-.3 6.3.7.5 1.5 1 2.2 1.5 9.1 5.3 17.9 3.9 26.6-.9 8.8-4.9 15.8-12.1 23.3-19-4.2-2.7-8.2-5.1-12-7.7zm39.1.2c6.6-4.6 13-9.4 19.2-14.5 5.7-4.6 5.5-4.8.4-10.1-2.8-2.8-4.2-2.9-7.3-.4-10.3 8.2-21.1 15.4-33.3 20.4-2.2.9-2.7 2.5-1.3 4.4 2.3 3.1 5.4 4.5 9.3 4.4 4.8 0 9.2-1.6 13-4.2zm-16.5 10.6c-2-.5-3.6 0-5.1 1.3-8.1 6.8-16.3 13.4-24.5 20.1-1.4 1.2-1.6 2.5-.4 3.8.8.8 1.9 1.6 3 1.9 6.9 2 13.6 1.5 19.6-2.6 3.2-2.2 6.1-4.8 8.8-7.7 3.9-4.2 7.4-8.8 11.6-13.8-4.8-1.1-8.9-2-13-3zm31.9 4.4c-3.1-.1-6.2-.3-9.2-.2-1.4.1-3 .7-4 1.7-4.5 4.7-8.9 9.7-13.3 14.6-1.7 1.9-3.3 3.8-5 5.6-1.4 1.5-1 2.7.6 3.5 1 .5 2.1.9 3.2 1 5.1.7 9.7-.5 13.7-3.7 2.6-2.1 5.3-4.4 7.2-7.1 3.4-4.7 6.4-9.7 9.8-15-1.5-.2-2.2-.3-3-.4Zm4.2-11.1c5.5-3.2 10.1-7.6 14.3-12.4 3.8-4.3 3.8-4.2-1.6-6.5-2.7-1.1-5-.9-7.1 1.1-2.2 2-4.5 4-6.9 5.8-4.9 3.6-9.9 7.1-14.7 10.7-.7.5-1.5 1.5-1.4 2.2.1.7 1.2 1.5 2 1.7 1.4.5 3 .6 4.5.9 3.9-.1 7.5-1.6 10.9-3.5zm6.2 10.3c-.6.2-1.2.9-1.5 1.5-2.9 4.5-5.8 9-8.6 13.6-.5.9-.5 2.1-.8 3.2 1.2.2 2.4.6 3.6.6 1.2-.1 2.4-.5 3.5-1 9.1-4.1 14.6-11.3 18.1-20.4.1-.3 0-.8 0-1.7-5.1 1.4-9.7 2.7-14.3 4.2zm5.4-8.1c1-.3 2-.5 3-1 7.5-3.4 14-8.1 19.4-14.4 1.1-1.3 2-2.8 2.8-4.2.3-.5.1-1.4-.1-2-.1-.2-1.1-.1-1.7 0-3.3 1-6.7 2-10 3.1-1 .3-2.2.9-2.9 1.6-4.5 4.6-8.9 9.3-13.2 14-.5.5-1.1 1.6-.9 2 .3.6 1.3.9 1.7 1.1.9-.1 1.4-.1 1.9-.2Z" clip-path="url(#b)" style="fill:#000;fill-opacity:1;fill-rule:nonzero;stroke:none" transform="translate(166.72 92.691) scale(.45463)"/></g><path d="M8.53-19.844h9.313c2.312 0 4.21-.785 5.703-2.36 1.53-1.562 2.297-3.519 2.297-5.874 0-2.352-.727-4.281-2.172-5.781-1.461-1.489-3.403-2.235-5.828-2.235H8.53zm21.438-8.125c0 3.5-1.235 6.406-3.704 8.719-2.437 2.273-5.445 3.406-9.015 3.406H8.53V0H4.42v-40.031H17.25c3.531 0 6.535 1.12 9.015 3.36 2.47 2.273 3.704 5.171 3.704 8.702zm18.886 7.422c-.937-.863-1.96-1.297-3.062-1.297-1.063 0-1.965.297-2.703.89a8.106 8.106 0 0 0-1.938 2.235c-.992 1.73-1.484 3.653-1.484 5.766V0h-4.11v-25.906h4.11v5.36l.187-1.063c1.375-3.22 3.508-4.829 6.407-4.829.906 0 1.769.18 2.593.532zm26.196 7.484c0-2.593-.922-4.812-2.766-6.656-1.844-1.844-4.063-2.765-6.656-2.765-2.586 0-4.805.921-6.657 2.765-1.843 1.844-2.765 4.063-2.765 6.656 0 2.543.922 4.743 2.765 6.594 1.852 1.844 4.07 2.766 6.657 2.766 2.593 0 4.812-.922 6.656-2.766 1.844-1.851 2.766-4.05 2.766-6.594zm4.125 0c0 3.762-1.32 6.938-3.954 9.532C72.511-.906 69.315.406 65.628.406c-3.688 0-6.867-1.312-9.532-3.937-2.668-2.594-4-5.77-4-9.532 0-3.726 1.332-6.93 4-9.609 2.625-2.625 5.801-3.937 9.532-3.937 3.726 0 6.925 1.312 9.593 3.937 2.633 2.68 3.954 5.883 3.954 9.61zm12.359-19.906c0 .75-.258 1.375-.766 1.875-.511.512-1.14.766-1.89.766-.742 0-1.367-.254-1.875-.766-.512-.5-.766-1.125-.766-1.875s.254-1.379.766-1.89c.508-.508 1.133-.766 1.875-.766.75 0 1.379.258 1.89.766.508.511.766 1.14.766 1.89zM90.94 4.953c0 2.426-.39 4.305-1.172 5.64-.824 1.376-1.789 2.36-2.89 2.954-1.137.582-2.313.836-3.532.765-1.218-.085-2.218-.382-3-.89V9.484c.512.47 1.137.782 1.875.938a3.265 3.265 0 0 0 2.125-.125c1.645-.668 2.47-2.434 2.47-5.297v-30.906h4.124zm34.442-18.5v2.188H102.6c.383 2.242 1.461 4.062 3.235 5.468 1.8 1.461 3.8 2.188 6 2.188a9.238 9.238 0 0 0 4.297-1.063 9.332 9.332 0 0 0 3.359-2.828h4.703c-1.094 2.469-2.742 4.414-4.937 5.828-2.243 1.45-4.496 2.172-6.766 2.172-2.324 0-4.29-.351-5.89-1.047a13.578 13.578 0 0 1-4.298-2.89c-2.667-2.594-4-5.77-4-9.532 0-3.726 1.333-6.93 4-9.609 2.625-2.625 5.801-3.937 9.532-3.937 3.613 0 6.773 1.277 9.484 3.828 2.707 2.586 4.063 5.664 4.063 9.234zm-4.36-1.344c-.469-2.195-1.57-4.023-3.297-5.484-1.73-1.406-3.695-2.11-5.89-2.11-3.375 0-6.024 1.512-7.938 4.532a9.398 9.398 0 0 0-1.25 3.062zm35.313-1.718h-4.469a9.19 9.19 0 0 0-3.297-4c-1.492-1.02-3-1.532-4.531-1.532-1.531 0-2.852.235-3.953.703a9.266 9.266 0 0 0-2.828 2.016c-1.762 1.844-2.641 4-2.641 6.469 0 2.512.879 4.672 2.64 6.484 1.727 1.844 3.848 2.766 6.36 2.766 1.656 0 3.187-.43 4.594-1.297a9.238 9.238 0 0 0 3.25-3.484h4.64c-1.449 4.168-4.257 6.953-8.422 8.359-1.292.477-2.761.719-4.406.719-1.656 0-3.289-.375-4.89-1.125-1.606-.707-3-1.688-4.188-2.938-2.543-2.676-3.812-5.836-3.812-9.484 0-3.688 1.27-6.848 3.812-9.485 2.594-2.664 5.734-4 9.422-4 2.988 0 5.68.922 8.078 2.766 2.27 1.774 3.817 4.125 4.64 7.063zm3.226-5.47v-3.827h6.485V-35.97h4.125v10.063h6.406v3.828h-6.406V0h-4.125v-22.078Zm0 0" aria-label="Project" style="fill:#000;fill-opacity:1;fill-rule:nonzero;stroke:none" transform="translate(-4.42 211.64)"/><path d="M32.436-13.594h9.828a20.312 20.312 0 0 1-4.234 7.328 21.04 21.04 0 0 1-6.828 5.032C28.577-.016 25.733.594 22.67.594 19.835.594 17.175.062 14.686-1A20.821 20.821 0 0 1 3.64-12.031c-1.054-2.5-1.578-5.16-1.578-7.985 0-2.82.524-5.476 1.578-7.968a20.565 20.565 0 0 1 4.454-6.594 20.737 20.737 0 0 1 6.593-4.453c2.489-1.063 5.149-1.594 7.985-1.594 3.062 0 5.894.61 8.5 1.828a21.296 21.296 0 0 1 6.797 4.984 19.723 19.723 0 0 1 4.25 7.266h-9.844c-.824-1.812-2.137-3.234-3.938-4.266-1.804-1.039-3.726-1.562-5.765-1.562-2.168 0-4.137.559-5.907 1.672-1.761 1.117-3.164 2.605-4.203 4.469-1.031 1.867-1.547 3.937-1.547 6.218 0 2.274.516 4.34 1.547 6.203a12.362 12.362 0 0 0 4.203 4.485c1.77 1.117 3.739 1.672 5.907 1.672 2.07 0 4.007-.547 5.812-1.64 1.813-1.102 3.13-2.536 3.953-4.298zm36.61-1.719-5.063-14.25-5.062 14.25zM83.999 0H74.53l-2.89-8.063H56.39L53.498 0H44.03l16.25-40.031h7.469Zm12.648-14.313V0H87.82v-40.031h15.016c2.156 0 4.164.543 6.031 1.625 1.863 1.074 3.363 2.574 4.5 4.5 1.145 1.918 1.719 4.152 1.719 6.703 0 2.242-.418 4.226-1.25 5.953-.824 1.73-1.922 3.148-3.297 4.25a11.913 11.913 0 0 1-4.578 2.281L117.428 0h-11.187L96.71-14.313Zm4.719-18.78h-4.719v11.843h4.719c1.289 0 2.492-.508 3.61-1.531 1.124-1.02 1.687-2.492 1.687-4.422 0-1.844-.563-3.285-1.688-4.328-1.117-1.04-2.32-1.563-3.609-1.563zm40.664 17.78-5.062-14.25-5.063 14.25zM156.983 0h-9.469l-2.89-8.063h-15.25L126.484 0h-9.47l16.25-40.031h7.47zm32.727-13.594h9.828a20.312 20.312 0 0 1-4.235 7.328 21.04 21.04 0 0 1-6.828 5.032c-2.625 1.218-5.468 1.828-8.53 1.828-2.837 0-5.497-.532-7.985-1.594a20.821 20.821 0 0 1-11.047-11.031c-1.055-2.5-1.578-5.16-1.578-7.985 0-2.82.523-5.476 1.578-7.968a20.565 20.565 0 0 1 4.453-6.594 20.737 20.737 0 0 1 6.594-4.453c2.488-1.063 5.148-1.594 7.984-1.594 3.063 0 5.895.61 8.5 1.828a21.296 21.296 0 0 1 6.797 4.984 19.723 19.723 0 0 1 4.25 7.266h-9.844c-.824-1.812-2.136-3.234-3.937-4.266-1.805-1.039-3.727-1.562-5.766-1.562-2.168 0-4.137.559-5.906 1.672-1.762 1.117-3.164 2.605-4.203 4.469-1.032 1.867-1.547 3.937-1.547 6.218 0 2.274.515 4.34 1.547 6.203a12.362 12.362 0 0 0 4.203 4.485c1.77 1.117 3.738 1.672 5.906 1.672 2.07 0 4.008-.547 5.813-1.64 1.812-1.102 3.129-2.536 3.953-4.298zm0 0" aria-label="CARAC" style="fill:#000;fill-opacity:1;fill-rule:nonzero;stroke:none" transform="translate(189.236 211.64)"/><path d="M5.86-1.564c1.313 0 2.224-.657 2.735-1.97l1.89.704C10.08-1.818 9.479-1.068 8.69-.58c-.781.48-1.727.719-2.828.719-1.668 0-2.961-.47-3.875-1.407-.906-.945-1.36-2.27-1.36-3.968 0-1.707.438-3.02 1.313-3.938.875-.914 2.148-1.375 3.828-1.375 1.219 0 2.207.246 2.969.735.77.492 1.312 1.21 1.625 2.156l-1.922.531c-.156-.52-.477-.93-.953-1.234-.48-.313-1.04-.47-1.672-.47-.992 0-1.742.31-2.25.923-.5.605-.75 1.496-.75 2.672 0 1.187.258 2.101.781 2.734.52.625 1.274.938 2.266.938zm15.93-2.438c0 1.293-.359 2.309-1.078 3.047-.71.73-1.699 1.094-2.968 1.094-1.242 0-2.215-.364-2.922-1.094-.711-.738-1.063-1.754-1.063-3.047 0-1.281.352-2.285 1.063-3.016.707-.738 1.695-1.109 2.969-1.109 1.3 0 2.289.36 2.968 1.078.688.711 1.032 1.727 1.032 3.047zm-2.156 0c0-.945-.156-1.633-.468-2.062-.313-.426-.762-.641-1.344-.641-1.262 0-1.89.902-1.89 2.703 0 .898.148 1.578.452 2.047.313.46.754.687 1.328.687 1.282 0 1.922-.91 1.922-2.734zm10.766 4V-4.47c0-1.406-.402-2.11-1.203-2.11-.43 0-.774.216-1.031.642-.262.43-.391.98-.391 1.656v4.281h-2.078v-6.187c0-.426-.008-.774-.016-1.047l-.031-.735h1.969c.02.094.039.344.062.75.02.399.031.672.031.828h.032c.257-.601.578-1.039.953-1.312.383-.281.844-.422 1.375-.422 1.219 0 1.957.578 2.219 1.734h.03c.27-.613.595-1.054.97-1.328.382-.27.867-.406 1.453-.406.78 0 1.375.266 1.78.797.407.523.61 1.277.61 2.266v5.062h-2.062V-4.47c0-1.406-.403-2.11-1.203-2.11-.407 0-.743.2-1 .595-.25.386-.387.922-.407 1.61v4.374zM48.93-4.033c0 1.336-.265 2.367-.797 3.094-.53.718-1.28 1.078-2.25 1.078-.562 0-1.054-.121-1.468-.36a2.303 2.303 0 0 1-.954-1.047h-.046c.03.149.046.594.046 1.344v3.047h-2.078v-9.266c0-.75-.015-1.359-.047-1.828h2c.032.086.051.258.063.516.02.262.031.523.031.781h.031c.47-.976 1.317-1.469 2.547-1.469.926 0 1.645.36 2.157 1.079.507.71.765 1.718.765 3.03zm-2.156 0c0-1.781-.547-2.672-1.64-2.672-.555 0-.977.242-1.266.719-.293.48-.438 1.152-.438 2.015 0 .867.145 1.532.438 2 .289.47.707.703 1.25.703 1.101 0 1.656-.921 1.656-2.765zm6.098 4.031v-6.11c0-.437-.008-.8-.016-1.093l-.031-.766h1.968c.02.086.04.352.063.797.02.45.031.75.031.906h.031c.196-.562.375-.957.532-1.187.164-.227.351-.395.562-.5.219-.113.488-.172.813-.172.27 0 .484.04.64.11v1.734a4.368 4.368 0 0 0-.875-.11c-.523 0-.93.211-1.218.625-.282.418-.422 1.04-.422 1.86v3.906zm11.402.14c-1.2 0-2.121-.35-2.766-1.062-.636-.707-.953-1.742-.953-3.11 0-1.312.32-2.32.969-3.03.656-.707 1.582-1.063 2.781-1.063 1.145 0 2.02.383 2.625 1.14.602.762.906 1.876.906 3.344v.047h-5.109c0 .782.14 1.371.422 1.766.289.398.703.594 1.234.594.727 0 1.192-.317 1.39-.953l1.954.171C67.154-.58 66.002.14 64.275.14zm0-6.952c-.48 0-.856.171-1.125.515-.262.336-.398.805-.406 1.406h3.093c-.043-.644-.199-1.125-.468-1.437-.274-.32-.637-.484-1.094-.484zm9.441.437c.282-.613.63-1.055 1.047-1.328.426-.281.93-.422 1.516-.422.844 0 1.488.262 1.937.781.457.524.688 1.282.688 2.282v5.062H76.84V-4.47c0-1.394-.476-2.093-1.422-2.093-.5 0-.906.214-1.218.64-.305.43-.453.98-.453 1.656v4.266h-2.079v-10.937h2.079v2.984c0 .531-.024 1.059-.063 1.578zM86.423.14c-1.199 0-2.12-.352-2.765-1.063-.637-.707-.953-1.742-.953-3.11 0-1.312.32-2.32.968-3.03.657-.707 1.582-1.063 2.782-1.063 1.144 0 2.02.383 2.625 1.14.601.762.906 1.876.906 3.344v.047h-5.11c0 .782.141 1.371.422 1.766.29.398.704.594 1.235.594.726 0 1.191-.317 1.39-.953l1.954.171C89.302-.58 88.15.14 86.423.14zm0-6.953c-.48 0-.855.171-1.125.515-.261.336-.398.805-.406 1.406h3.094c-.043-.644-.2-1.125-.469-1.437-.273-.32-.637-.484-1.094-.484zM98.99-.002V-4.47c0-1.406-.477-2.11-1.422-2.11-.5 0-.906.22-1.219.657-.305.43-.453.977-.453 1.64v4.282h-2.078v-6.187c0-.426-.008-.774-.016-1.047l-.031-.735h1.969c.02.094.039.344.062.75.02.399.032.672.032.828h.03c.282-.601.63-1.039 1.048-1.312.425-.281.93-.422 1.515-.422.844 0 1.489.262 1.938.781.457.524.687 1.282.687 2.282v5.062zm13.047-2.328c0 .773-.32 1.375-.953 1.812-.637.438-1.512.657-2.625.657-1.094 0-1.934-.172-2.516-.516-.586-.344-.969-.879-1.156-1.61l1.812-.28c.102.386.281.656.531.812.258.156.704.234 1.329.234.582 0 1.003-.07 1.265-.218a.764.764 0 0 0 .406-.704c0-.25-.109-.445-.328-.593-.21-.157-.57-.285-1.078-.39-1.168-.228-1.96-.442-2.375-.642-.406-.195-.719-.453-.937-.765-.211-.32-.313-.719-.313-1.188 0-.758.29-1.347.875-1.765.594-.426 1.426-.64 2.5-.64.945 0 1.707.183 2.281.546.582.367.946.898 1.094 1.594l-1.844.203c-.054-.32-.199-.563-.437-.719-.23-.164-.594-.25-1.094-.25-.492 0-.86.063-1.11.188-.241.125-.359.335-.359.625 0 .23.094.414.282.546.187.137.504.25.953.344.625.125 1.176.258 1.656.39.488.138.879.298 1.172.485.289.188.523.43.703.719.176.293.266.668.266 1.125zm3.925-7.078v-1.531h2.079v1.53zm0 9.406V-7.97h2.079V0zm10.805 0h-2.484l-2.844-7.969h2.188l1.39 4.453.516 1.844c.05-.195.148-.55.297-1.062.156-.508.722-2.254 1.703-5.235h2.172zm9.582.14c-1.2 0-2.12-.35-2.765-1.062-.637-.707-.954-1.742-.954-3.11 0-1.312.32-2.32.97-3.03.655-.707 1.581-1.063 2.78-1.063 1.145 0 2.02.383 2.625 1.14.602.762.907 1.876.907 3.344v.047h-5.11c0 .782.14 1.371.422 1.766.29.398.703.594 1.235.594.726 0 1.19-.317 1.39-.953l1.953.171C139.228-.58 138.076.14 136.35.14zm0-6.952c-.48 0-.855.171-1.125.515-.262.336-.398.805-.406 1.406h3.094c-.043-.644-.2-1.125-.47-1.437-.273-.32-.636-.484-1.093-.484zm21.149 6.812-.922-2.656h-3.953L151.7-.002h-2.172l3.781-10.39h2.578l3.766 10.39zm-2.891-8.781-.047.156-.187.61c-.063.23-.485 1.468-1.266 3.718h2.984l-1.015-2.984-.328-1zm10.715.812v4.47c0 1.397.472 2.093 1.422 2.093.5 0 .898-.211 1.203-.64.312-.427.469-.977.469-1.657v-4.266h2.078v6.188c0 .68.015 1.273.047 1.781h-1.97a19.782 19.782 0 0 1-.093-1.578h-.031c-.273.605-.621 1.043-1.047 1.312-.43.27-.934.407-1.516.407-.843 0-1.496-.254-1.953-.766-.449-.52-.672-1.281-.672-2.281v-5.063zM176.9.123c-.606 0-1.074-.16-1.406-.484-.336-.332-.5-.836-.5-1.516V-6.58h-1v-1.39h1.11l.655-1.876h1.297v1.875h1.5v1.39h-1.5v4.142c0 .398.07.687.219.875.144.18.375.265.687.265.157 0 .383-.035.688-.11v1.282a5.716 5.716 0 0 1-1.75.25zm12.824-4.125c0 1.293-.36 2.309-1.078 3.047-.71.73-1.7 1.094-2.969 1.094-1.242 0-2.215-.364-2.922-1.094-.71-.738-1.062-1.754-1.062-3.047 0-1.281.351-2.285 1.062-3.016.707-.738 1.696-1.109 2.97-1.109 1.3 0 2.288.36 2.968 1.078.687.711 1.031 1.727 1.031 3.047zm-2.156 0c0-.945-.156-1.633-.469-2.062-.312-.426-.762-.641-1.344-.641-1.261 0-1.89.902-1.89 2.703 0 .898.148 1.578.453 2.047.312.46.754.687 1.328.687 1.281 0 1.922-.91 1.922-2.734zm10.766 4V-4.47c0-1.406-.403-2.11-1.204-2.11-.43 0-.773.216-1.03.642-.263.43-.391.98-.391 1.656v4.281h-2.079v-6.187c0-.426-.008-.774-.015-1.047-.012-.282-.024-.524-.031-.735h1.968c.02.094.04.344.063.75.02.399.031.672.031.828h.031c.258-.601.578-1.039.953-1.312.383-.281.844-.422 1.375-.422 1.22 0 1.957.578 2.22 1.734h.03c.27-.613.594-1.054.97-1.328.382-.27.866-.406 1.452-.406.781 0 1.375.266 1.781.797.407.523.61 1.277.61 2.266v5.062h-2.063V-4.47c0-1.406-.402-2.11-1.203-2.11-.406 0-.742.2-1 .595-.25.386-.386.922-.406 1.61v4.374zm12.828.14c-.774 0-1.375-.206-1.813-.624-.43-.414-.64-1.004-.64-1.766 0-.832.27-1.46.812-1.89.54-.438 1.32-.66 2.344-.672l1.719-.016v-.406c0-.52-.094-.907-.282-1.157-.18-.257-.476-.39-.89-.39-.387 0-.668.09-.844.265-.18.18-.29.465-.328.86l-2.172-.094c.133-.781.488-1.367 1.062-1.766.582-.406 1.375-.609 2.375-.609s1.77.25 2.313.75c.55.492.828 1.195.828 2.11v2.906c0 .449.047.761.14.937.102.168.274.25.516.25.157 0 .305-.015.453-.047v1.11a9.032 9.032 0 0 0-.328.093c-.093.02-.195.036-.297.047a3.127 3.127 0 0 1-.703.063c-.523 0-.906-.125-1.156-.375-.242-.258-.387-.64-.437-1.14h-.047c-.575 1.042-1.45 1.562-2.625 1.562zm2.422-3.827-1.063.015c-.492.024-.836.074-1.031.156a.93.93 0 0 0-.453.391c-.106.18-.157.414-.157.703 0 .387.082.672.25.86.176.18.41.265.704.265.32 0 .613-.086.875-.265.27-.176.484-.422.64-.735.156-.312.235-.64.235-.984zm8.44 3.812c-.605 0-1.073-.16-1.405-.484-.336-.332-.5-.836-.5-1.516V-6.58h-1v-1.39h1.11l.655-1.876h1.297v1.875h1.5v1.39h-1.5v4.142c0 .398.07.687.219.875.144.18.375.265.687.265.157 0 .383-.035.688-.11v1.282a5.716 5.716 0 0 1-1.75.25zm8.513.016c-1.2 0-2.121-.352-2.766-1.063-.637-.707-.953-1.742-.953-3.11 0-1.312.32-2.32.969-3.03.656-.707 1.582-1.063 2.78-1.063 1.145 0 2.02.383 2.626 1.14.601.762.906 1.876.906 3.344v.047h-5.11c0 .782.141 1.371.423 1.766.289.398.703.594 1.234.594.727 0 1.191-.317 1.39-.953l1.954.171C233.416-.58 232.263.14 230.537.14zm0-6.953c-.48 0-.856.171-1.125.515-.262.336-.399.805-.407 1.406h3.094c-.043-.644-.2-1.125-.469-1.437-.273-.32-.636-.484-1.093-.484zm12.566 6.812c-.023-.07-.047-.254-.078-.547-.023-.3-.031-.55-.031-.75h-.031c-.45.961-1.297 1.438-2.547 1.438-.93 0-1.649-.36-2.157-1.078-.5-.727-.75-1.743-.75-3.047 0-1.32.266-2.344.797-3.063.532-.719 1.285-1.078 2.266-1.078.562 0 1.047.121 1.453.36.414.23.734.578.953 1.046h.016l-.016-1.312v-2.906h2.078v9.203c0 .492.016 1.07.047 1.734zm-.094-4.031c0-.863-.148-1.524-.437-1.985-.281-.468-.703-.703-1.266-.703-.554 0-.965.23-1.234.688-.274.449-.406 1.133-.406 2.047 0 1.812.539 2.718 1.625 2.718.539 0 .96-.238 1.265-.718.301-.477.453-1.16.453-2.047zM262.97-.002l-2.406-3.937h-2.547v3.937h-2.172v-10.39h5.188c1.238 0 2.191.273 2.86.812.675.531 1.015 1.297 1.015 2.297 0 .719-.211 1.344-.625 1.875-.406.531-.965.883-1.672 1.047l2.812 4.36zm-.25-7.203c0-1-.64-1.5-1.922-1.5h-2.78v3.078h2.843c.601 0 1.062-.133 1.375-.406.32-.281.484-.672.484-1.172zm13.899 3.203c0 1.293-.36 2.309-1.078 3.047-.711.73-1.7 1.094-2.97 1.094-1.241 0-2.214-.364-2.921-1.094-.71-.738-1.063-1.754-1.063-3.047 0-1.281.352-2.285 1.063-3.016.707-.738 1.695-1.109 2.969-1.109 1.3 0 2.289.36 2.968 1.078.688.711 1.032 1.727 1.032 3.047zm-2.157 0c0-.945-.156-1.633-.468-2.062-.313-.426-.762-.641-1.344-.641-1.262 0-1.89.902-1.89 2.703 0 .898.148 1.578.452 2.047.313.46.754.687 1.329.687 1.28 0 1.921-.91 1.921-2.734zm13.61-.016c0 1.313-.266 2.336-.797 3.063-.523.73-1.273 1.094-2.25 1.094-.574 0-1.07-.121-1.484-.36a2.44 2.44 0 0 1-.938-1.062h-.015c0 .168-.012.402-.032.703-.023.305-.047.496-.078.578h-2c.031-.457.047-1.066.047-1.828v-9.11h2.078v3.047l-.03 1.297h.03c.469-1.02 1.317-1.53 2.547-1.53.945 0 1.672.358 2.172 1.077.5.711.75 1.719.75 3.031zm-2.156 0c0-.906-.137-1.578-.407-2.015-.261-.438-.668-.656-1.218-.656-.563 0-.993.234-1.282.703-.293.468-.437 1.148-.437 2.03 0 .845.14 1.509.422 1.985.289.47.718.703 1.281.703 1.094 0 1.64-.914 1.64-2.75zm13.675.016c0 1.293-.359 2.309-1.078 3.047-.71.73-1.699 1.094-2.968 1.094-1.243 0-2.215-.364-2.922-1.094-.711-.738-1.063-1.754-1.063-3.047 0-1.281.352-2.285 1.063-3.016.707-.738 1.695-1.109 2.968-1.109 1.301 0 2.29.36 2.97 1.078.687.711 1.03 1.727 1.03 3.047zm-2.156 0c0-.945-.156-1.633-.469-2.062-.312-.426-.761-.641-1.343-.641-1.262 0-1.891.902-1.891 2.703 0 .898.148 1.578.453 2.047.313.46.754.687 1.328.687 1.282 0 1.922-.91 1.922-2.734zm8.11 4.125c-.606 0-1.075-.16-1.407-.484-.336-.332-.5-.836-.5-1.516V-6.58h-1v-1.39h1.11l.656-1.876h1.297v1.875h1.5v1.39h-1.5v4.142c0 .398.07.687.219.875.144.18.375.265.687.265.156 0 .383-.035.688-.11v1.282a5.716 5.716 0 0 1-1.75.25zm5.246-9.531v-1.531h2.078v1.53zm0 9.406V-7.97h2.078V0zm9.785.14c-1.211 0-2.14-.359-2.797-1.077-.656-.72-.984-1.72-.984-3 0-1.32.328-2.348.984-3.079.664-.738 1.61-1.109 2.828-1.109.938 0 1.711.242 2.328.719.613.469 1 1.117 1.156 1.937l-2.078.11c-.062-.407-.215-.727-.453-.97-.23-.25-.562-.374-1-.374-1.062 0-1.594.89-1.594 2.672 0 1.844.54 2.765 1.625 2.765.395 0 .723-.125.985-.375.27-.25.437-.617.5-1.109l2.078.094a3.077 3.077 0 0 1-.594 1.469c-.312.43-.73.757-1.25.984a4.242 4.242 0 0 1-1.734.344zm0 0" aria-label="Comprehensive Automated Robotic" style="fill:#000;fill-opacity:1;fill-rule:nonzero;stroke:none" transform="translate(30.62 268.83)"/><path d="m8.345-.002-.922-2.656H3.47L2.548-.002H.377l3.78-10.39h2.579l3.766 10.39zm-2.89-8.781-.047.156-.188.61c-.062.23-.484 1.468-1.265 3.718h2.984L5.923-7.283l-.328-1ZM17.478.139c-1.2 0-2.121-.352-2.766-1.063-.636-.707-.953-1.742-.953-3.11 0-1.312.32-2.32.97-3.03.655-.707 1.581-1.063 2.78-1.063 1.145 0 2.02.383 2.625 1.14.602.762.907 1.876.907 3.344v.047h-5.11c0 .782.14 1.371.422 1.766.29.398.703.594 1.234.594.727 0 1.192-.317 1.391-.953l1.953.171C20.357-.58 19.205.14 17.478.14zm0-6.953c-.48 0-.855.171-1.125.515-.262.336-.398.805-.406 1.406h3.094c-.043-.644-.2-1.125-.47-1.437-.273-.32-.636-.484-1.093-.484zm7.395 6.812v-6.11c0-.437-.008-.8-.016-1.093l-.031-.766h1.968c.02.086.04.352.063.797.02.45.031.75.031.906h.031c.196-.562.375-.957.532-1.187.164-.227.351-.395.562-.5.219-.113.488-.172.813-.172.27 0 .484.04.64.11v1.734a4.368 4.368 0 0 0-.875-.11c-.523 0-.93.211-1.218.625-.282.418-.422 1.04-.422 1.86v3.906zm15.718-4c0 1.293-.359 2.309-1.078 3.047-.71.73-1.699 1.094-2.969 1.094-1.242 0-2.214-.364-2.921-1.094-.711-.738-1.063-1.754-1.063-3.047 0-1.281.352-2.285 1.063-3.016.707-.738 1.695-1.109 2.968-1.109 1.301 0 2.29.36 2.97 1.078.687.711 1.03 1.727 1.03 3.047zm-2.156 0c0-.945-.156-1.633-.469-2.062-.312-.426-.761-.641-1.343-.641-1.262 0-1.891.902-1.891 2.703 0 .898.148 1.578.453 2.047.313.46.754.687 1.328.687 1.281 0 1.922-.91 1.922-2.734zm11.234 4c-.023-.07-.046-.254-.078-.547-.023-.3-.03-.55-.03-.75h-.032C49.079-.338 48.232.14 46.982.14c-.93 0-1.648-.36-2.156-1.078-.5-.727-.75-1.743-.75-3.047 0-1.32.265-2.344.797-3.063.53-.719 1.285-1.078 2.265-1.078.563 0 1.047.121 1.453.36.414.23.735.578.953 1.046h.016l-.016-1.312v-2.906h2.079v9.203c0 .492.015 1.07.046 1.734zm-.093-4.031c0-.863-.149-1.524-.438-1.985-.281-.468-.703-.703-1.265-.703-.555 0-.965.23-1.235.688-.273.449-.406 1.133-.406 2.047 0 1.812.539 2.718 1.625 2.718.539 0 .96-.238 1.266-.718.3-.477.453-1.16.453-2.047zm7.441 7.156c-.492 0-.922-.031-1.297-.094V1.561c.258.039.5.062.719.062.29 0 .531-.047.719-.14.195-.094.375-.25.531-.47.156-.218.328-.585.516-1.093l-3.141-7.89h2.188l1.25 3.734c.195.53.44 1.351.734 2.453l.187-.688.485-1.734 1.172-3.766h2.172L60.095.42c-.418 1.02-.855 1.724-1.312 2.11-.461.395-1.047.594-1.766.594zm14.8-3.125V-4.47c0-1.406-.476-2.11-1.421-2.11-.5 0-.906.22-1.219.657-.304.43-.453.977-.453 1.64v4.282h-2.078v-6.187c0-.426-.008-.774-.016-1.047-.011-.282-.023-.524-.03-.735h1.968c.02.094.039.344.062.75.02.399.032.672.032.828h.03c.282-.601.63-1.039 1.048-1.312.426-.281.93-.422 1.515-.422.844 0 1.489.262 1.938.781.457.524.687 1.282.687 2.282v5.062zm8.157.14c-.773 0-1.375-.206-1.812-.624-.43-.414-.641-1.004-.641-1.766 0-.832.27-1.46.813-1.89.539-.438 1.32-.66 2.343-.672l1.719-.016v-.406c0-.52-.094-.907-.281-1.157-.18-.257-.477-.39-.89-.39-.388 0-.669.09-.845.265-.18.18-.289.465-.328.86l-2.172-.094c.133-.781.489-1.367 1.063-1.766.582-.406 1.375-.609 2.375-.609s1.77.25 2.312.75c.551.492.829 1.195.829 2.11v2.906c0 .449.046.761.14.937.102.168.274.25.516.25.156 0 .304-.015.453-.047v1.11a9.035 9.035 0 0 0-.328.093 3.37 3.37 0 0 1-.297.047 3.13 3.13 0 0 1-.703.063c-.524 0-.906-.125-1.156-.375-.243-.258-.387-.64-.438-1.14h-.047C82.025-.382 81.15.138 79.974.138zm2.422-3.827-1.062.015c-.493.024-.836.074-1.032.156a.93.93 0 0 0-.453.391c-.105.18-.156.414-.156.703 0 .387.082.672.25.86.176.18.41.265.703.265.32 0 .613-.086.875-.265.27-.176.484-.422.64-.735.157-.312.235-.64.235-.984zM93.494-.002V-4.47c0-1.406-.403-2.11-1.203-2.11-.43 0-.774.216-1.032.642-.261.43-.39.98-.39 1.656v4.281H88.79v-6.187c0-.426-.008-.774-.016-1.047-.012-.282-.024-.524-.031-.735h1.968c.02.094.04.344.063.75.02.399.031.672.031.828h.031c.258-.601.579-1.039.954-1.312.382-.281.843-.422 1.375-.422 1.218 0 1.957.578 2.218 1.734h.032c.27-.613.593-1.054.968-1.328.383-.27.867-.406 1.453-.406.782 0 1.375.266 1.782.797.406.523.61 1.277.61 2.266v5.062h-2.063V-4.47c0-1.406-.403-2.11-1.204-2.11-.406 0-.742.2-1 .595-.25.386-.386.922-.406 1.61v4.374zm10.984-9.406v-1.531h2.078v1.53zm0 9.406V-7.97h2.078V0zm9.785.14c-1.21 0-2.14-.359-2.797-1.077-.656-.72-.984-1.72-.984-3 0-1.32.328-2.348.984-3.079.664-.738 1.61-1.109 2.828-1.109.938 0 1.711.242 2.329.719.613.469 1 1.117 1.156 1.937l-2.078.11c-.063-.407-.215-.727-.453-.97-.23-.25-.563-.374-1-.374-1.063 0-1.594.89-1.594 2.672 0 1.844.539 2.765 1.625 2.765.394 0 .723-.125.984-.375.27-.25.438-.617.5-1.109l2.078.094a3.077 3.077 0 0 1-.593 1.469c-.313.43-.73.757-1.25.984a4.242 4.242 0 0 1-1.735.344zm18.606-1.702c1.312 0 2.222-.657 2.734-1.97l1.89.704c-.406 1.012-1.007 1.762-1.796 2.25-.781.48-1.727.719-2.828.719-1.668 0-2.961-.47-3.875-1.407-.907-.945-1.36-2.27-1.36-3.968 0-1.707.438-3.02 1.313-3.938.875-.914 2.148-1.375 3.828-1.375 1.219 0 2.207.246 2.969.735.77.492 1.312 1.21 1.625 2.156l-1.922.531c-.156-.52-.477-.93-.953-1.234-.48-.313-1.04-.47-1.672-.47-.992 0-1.742.31-2.25.923-.5.605-.75 1.496-.75 2.672 0 1.187.258 2.101.781 2.734.52.625 1.274.938 2.266.938zm10.398-4.813c.281-.613.629-1.055 1.047-1.328.426-.281.93-.422 1.516-.422.843 0 1.488.262 1.937.781.457.524.688 1.282.688 2.282v5.062h-2.063V-4.47c0-1.394-.476-2.093-1.422-2.093-.5 0-.906.214-1.218.64-.305.43-.454.98-.454 1.656v4.266h-2.078v-10.937h2.078v2.984c0 .531-.023 1.059-.062 1.578zM154.552.14c-.773 0-1.375-.207-1.812-.625-.43-.414-.64-1.004-.64-1.766 0-.832.269-1.46.812-1.89.539-.438 1.32-.66 2.343-.672l1.72-.016v-.406c0-.52-.095-.907-.282-1.157-.18-.257-.477-.39-.89-.39-.387 0-.669.09-.844.265-.18.18-.29.465-.329.86l-2.171-.094c.132-.781.488-1.367 1.062-1.766.582-.406 1.375-.609 2.375-.609s1.77.25 2.313.75c.55.492.828 1.195.828 2.11v2.906c0 .449.047.761.14.937.102.168.274.25.516.25.156 0 .305-.015.453-.047v1.11a9.037 9.037 0 0 0-.328.093c-.094.02-.195.036-.297.047a3.127 3.127 0 0 1-.703.063c-.524 0-.906-.125-1.156-.375-.243-.258-.387-.64-.438-1.14h-.047c-.574 1.042-1.449 1.562-2.625 1.562zm2.422-3.828-1.062.015c-.493.024-.836.074-1.032.156a.93.93 0 0 0-.453.391c-.105.18-.156.414-.156.703 0 .387.082.672.25.86.176.18.41.265.703.265.32 0 .613-.086.875-.265.27-.176.485-.422.64-.735.157-.312.235-.64.235-.984zm6.395 3.687v-6.11c0-.437-.008-.8-.016-1.093l-.031-.766h1.969c.02.086.039.352.062.797.02.45.031.75.031.906h.032c.195-.562.375-.957.53-1.187.165-.227.352-.395.563-.5.219-.113.489-.172.813-.172.27 0 .484.04.64.11v1.734a4.368 4.368 0 0 0-.875-.11c-.523 0-.93.211-1.218.625-.282.418-.422 1.04-.422 1.86v3.906zm9.98.14c-.773 0-1.375-.206-1.812-.624-.43-.414-.641-1.004-.641-1.766 0-.832.27-1.46.813-1.89.539-.438 1.32-.66 2.343-.672l1.719-.016v-.406c0-.52-.094-.907-.281-1.157-.18-.257-.477-.39-.89-.39-.388 0-.669.09-.845.265-.18.18-.289.465-.328.86l-2.172-.094c.133-.781.489-1.367 1.063-1.766.582-.406 1.375-.609 2.375-.609s1.77.25 2.312.75c.551.492.829 1.195.829 2.11v2.906c0 .449.046.761.14.937.102.168.274.25.516.25.156 0 .304-.015.453-.047v1.11a9.037 9.037 0 0 0-.328.093c-.094.02-.196.036-.297.047a3.127 3.127 0 0 1-.703.063c-.524 0-.906-.125-1.156-.375-.243-.258-.387-.64-.438-1.14h-.047C175.4-.382 174.524.138 173.35.138zm2.422-3.827-1.062.015c-.493.024-.836.074-1.032.156a.93.93 0 0 0-.453.391c-.105.18-.156.414-.156.703 0 .387.082.672.25.86.176.18.41.265.703.265.32 0 .613-.086.875-.265.27-.176.484-.422.64-.735.157-.312.235-.64.235-.984zm9.723 3.828c-1.211 0-2.14-.36-2.797-1.078-.656-.72-.985-1.72-.985-3 0-1.32.329-2.348.985-3.079.664-.738 1.61-1.109 2.828-1.109.937 0 1.71.242 2.328.719.613.469 1 1.117 1.156 1.937l-2.078.11c-.062-.407-.215-.727-.453-.97-.23-.25-.562-.374-1-.374-1.062 0-1.594.89-1.594 2.672 0 1.844.54 2.765 1.625 2.765.395 0 .723-.125.985-.375.27-.25.437-.617.5-1.109l2.078.094a3.077 3.077 0 0 1-.594 1.469c-.312.43-.73.757-1.25.984a4.242 4.242 0 0 1-1.734.344zm9.379-.016c-.606 0-1.075-.16-1.407-.484-.336-.332-.5-.836-.5-1.516V-6.58h-1v-1.39h1.11l.656-1.876h1.297v1.875h1.5v1.39h-1.5v4.142c0 .398.07.687.219.875.144.18.375.265.687.265.156 0 .383-.035.688-.11v1.282a5.716 5.716 0 0 1-1.75.25zm8.511.016c-1.199 0-2.12-.352-2.765-1.063-.637-.707-.953-1.742-.953-3.11 0-1.312.32-2.32.968-3.03.657-.707 1.582-1.063 2.782-1.063 1.144 0 2.02.383 2.625 1.14.601.762.906 1.876.906 3.344v.047h-5.11c0 .782.141 1.371.422 1.766.29.398.703.594 1.235.594.726 0 1.191-.317 1.39-.953l1.953.171C206.263-.58 205.111.14 203.384.14zm0-6.953c-.48 0-.855.171-1.125.515-.261.336-.398.805-.406 1.406h3.094c-.043-.644-.2-1.125-.469-1.437-.273-.32-.637-.484-1.094-.484zm7.395 6.812v-6.11c0-.437-.008-.8-.016-1.093l-.031-.766h1.969c.02.086.039.352.062.797.02.45.031.75.031.906h.032c.195-.562.375-.957.53-1.187.165-.227.353-.395.563-.5.22-.113.489-.172.813-.172.27 0 .484.04.64.11v1.734a4.368 4.368 0 0 0-.874-.11c-.524 0-.93.211-1.22.625-.28.418-.421 1.04-.421 1.86v3.906zm8.14-9.406v-1.531h2.079v1.53zm0 9.406V-7.97h2.079V0zm6.024 0V-1.47l3.75-5.015h-3.453v-1.485h5.734v1.47l-3.734 4.983h4.094v1.516zm12.094.14c-.774 0-1.375-.206-1.813-.624-.43-.414-.64-1.004-.64-1.766 0-.832.27-1.46.812-1.89.54-.438 1.32-.66 2.344-.672l1.719-.016v-.406c0-.52-.094-.907-.282-1.157-.18-.257-.476-.39-.89-.39-.387 0-.668.09-.844.265-.18.18-.29.465-.328.86l-2.172-.094c.133-.781.488-1.367 1.062-1.766.582-.406 1.375-.609 2.375-.609s1.77.25 2.313.75c.55.492.828 1.195.828 2.11v2.906c0 .449.047.761.14.937.102.168.274.25.516.25.157 0 .305-.015.453-.047v1.11a9.032 9.032 0 0 0-.328.093c-.093.02-.195.036-.297.047a3.127 3.127 0 0 1-.703.063c-.523 0-.906-.125-1.156-.375-.242-.258-.387-.64-.437-1.14h-.047c-.575 1.042-1.45 1.562-2.625 1.562zm2.422-3.827-1.063.015c-.492.024-.836.074-1.031.156a.93.93 0 0 0-.453.391c-.106.18-.157.414-.157.703 0 .387.082.672.25.86.176.18.41.265.704.265.32 0 .613-.086.875-.265.27-.176.484-.422.64-.735.156-.312.235-.64.235-.984zm8.44 3.812c-.605 0-1.073-.16-1.405-.484-.336-.332-.5-.836-.5-1.516V-6.58h-1v-1.39h1.11l.655-1.876h1.297v1.875h1.5v1.39h-1.5v4.142c0 .398.07.687.219.875.144.18.375.265.687.265.157 0 .383-.035.688-.11v1.282a5.716 5.716 0 0 1-1.75.25zm5.243-9.531v-1.531h2.078v1.53zm0 9.406V-7.97h2.078V0zm14.04-4c0 1.293-.36 2.309-1.079 3.047-.71.73-1.7 1.094-2.969 1.094-1.242 0-2.215-.364-2.922-1.094-.71-.738-1.062-1.754-1.062-3.047 0-1.281.352-2.285 1.062-3.016.707-.738 1.696-1.109 2.97-1.109 1.3 0 2.288.36 2.968 1.078.687.711 1.031 1.727 1.031 3.047zm-2.157 0c0-.945-.156-1.633-.469-2.062-.312-.426-.762-.641-1.344-.641-1.261 0-1.89.902-1.89 2.703 0 .898.148 1.578.453 2.047.312.46.754.687 1.328.687 1.281 0 1.922-.91 1.922-2.734zm11.234 4V-4.47c0-1.406-.476-2.11-1.422-2.11-.5 0-.906.22-1.218.657-.305.43-.453.977-.453 1.64v4.282h-2.079v-6.187c0-.426-.008-.774-.015-1.047-.012-.282-.024-.524-.031-.735h1.968c.02.094.04.344.063.75.02.399.031.672.031.828h.031c.282-.601.63-1.039 1.047-1.312.426-.281.93-.422 1.516-.422.844 0 1.488.262 1.937.781.457.524.688 1.282.688 2.282v5.062zm21.274-7.094a3.58 3.58 0 0 1-.453 1.797 3.1 3.1 0 0 1-1.313 1.219c-.562.281-1.234.422-2.015.422h-2.579v3.656h-2.171v-10.39h4.656c1.25 0 2.207.288 2.875.859.664.574 1 1.387 1 2.437zm-2.188.032c0-1.094-.64-1.641-1.922-1.641h-2.25v3.375h2.297c.602 0 1.067-.145 1.39-.438.321-.3.485-.734.485-1.296zm6.024 7.062v-10.937h2.078V-.002zm8.3.14c-.773 0-1.375-.206-1.812-.624-.43-.414-.64-1.004-.64-1.766 0-.832.269-1.46.812-1.89.539-.438 1.32-.66 2.344-.672l1.718-.016v-.406c0-.52-.093-.907-.28-1.157-.18-.257-.477-.39-.892-.39-.386 0-.667.09-.843.265-.18.18-.29.465-.328.86l-2.172-.094c.133-.781.488-1.367 1.062-1.766.582-.406 1.375-.609 2.375-.609s1.77.25 2.313.75c.55.492.828 1.195.828 2.11v2.906c0 .449.047.761.14.937.102.168.274.25.516.25.156 0 .305-.015.453-.047v1.11a9.037 9.037 0 0 0-.328.093c-.094.02-.195.036-.297.047a3.127 3.127 0 0 1-.703.063c-.523 0-.906-.125-1.156-.375-.242-.258-.387-.64-.438-1.14h-.047C311.72-.382 310.845.138 309.67.138zm2.422-3.827-1.062.015c-.492.024-.836.074-1.031.156a.93.93 0 0 0-.454.391c-.105.18-.156.414-.156.703 0 .387.082.672.25.86.176.18.41.265.703.265.32 0 .614-.086.875-.265.27-.176.485-.422.641-.735.156-.312.234-.64.234-.984zm8.442 3.812c-.606 0-1.074-.16-1.406-.484-.336-.332-.5-.836-.5-1.516V-6.58h-1v-1.39h1.109l.656-1.876h1.297v1.875h1.5v1.39h-1.5v4.142c0 .398.07.687.219.875.144.18.375.265.687.265.157 0 .383-.035.688-.11v1.282a5.716 5.716 0 0 1-1.75.25zm7.683-6.703v6.578h-2.062V-6.58h-1.156v-1.39h1.156v-.844c0-.72.191-1.25.578-1.594.383-.352.969-.531 1.75-.531.383 0 .82.043 1.312.125v1.328a3.362 3.362 0 0 0-.609-.063c-.355 0-.605.074-.75.219-.148.137-.219.383-.219.734v.625h1.578v1.39zm12.434 2.578c0 1.293-.36 2.309-1.078 3.047-.711.73-1.7 1.094-2.969 1.094-1.242 0-2.215-.364-2.922-1.094-.71-.738-1.062-1.754-1.062-3.047 0-1.281.351-2.285 1.062-3.016.707-.738 1.696-1.109 2.969-1.109 1.3 0 2.289.36 2.969 1.078.687.711 1.03 1.727 1.03 3.047zm-2.156 0c0-.945-.157-1.633-.47-2.062-.312-.426-.76-.641-1.343-.641-1.262 0-1.89.902-1.89 2.703 0 .898.148 1.578.453 2.047.312.46.754.687 1.328.687 1.281 0 1.922-.91 1.922-2.734zm6.062 4v-6.11c0-.437-.008-.8-.015-1.093-.012-.29-.024-.547-.032-.766h1.97c.019.086.038.352.062.797.02.45.03.75.03.906h.032c.195-.562.375-.957.531-1.187.164-.227.352-.395.563-.5.219-.113.488-.172.812-.172.27 0 .485.04.64.11v1.734a4.368 4.368 0 0 0-.874-.11c-.524 0-.93.211-1.219.625-.281.418-.422 1.04-.422 1.86v3.906zm12.844 0V-4.47c0-1.406-.402-2.11-1.203-2.11-.43 0-.774.216-1.031.642-.262.43-.391.98-.391 1.656v4.281h-2.078v-6.187c0-.426-.008-.774-.016-1.047l-.031-.735h1.969c.02.094.039.344.062.75.02.399.031.672.031.828h.032c.257-.601.578-1.039.953-1.312.383-.281.844-.422 1.375-.422 1.219 0 1.957.578 2.219 1.734h.03c.27-.613.595-1.054.97-1.328.382-.27.867-.406 1.453-.406.78 0 1.375.266 1.78.797.407.523.61 1.277.61 2.266v5.062h-2.062V-4.47c0-1.406-.403-2.11-1.203-2.11-.407 0-.743.2-1 .595-.25.386-.387.922-.407 1.61v4.374zm0 0" aria-label="Aerodynamic Characterization Platform" style="fill:#000;fill-opacity:1;fill-rule:nonzero;stroke:none" transform="translate(10.385 289.83)"/><path fill="none" d="M125.04 209.986h124.92v103.799H125.04Z" style="fill:#000;fill-opacity:0;fill-rule:nonzero;stroke:none" transform="matrix(1.33333 0 0 -1.33333 -57.07 418.38)"/></svg>